<svg width="256" height="256" viewBox="0 0 256 256" fill="none" xmlns="http://www.w3.org/2000/svg">
<path fill-rule="evenodd" clip-rule="evenodd" d="M47 138.978L53.3947 114.022L47 80.0377L53.3947 61.9838L47 35.434L75.7763 28L86.9671 35.434L128 31.186L169.033 35.434L180.224 28L209 35.434L202.605 61.9838L209 80.0377L202.605 114.022L209 138.978H47ZM114.145 63.5768H77.9079V99.6846H114.145V63.5768ZM141.855 63.5768H178.092V99.6846H141.855V63.5768Z" fill="white"/>
<path d="M47 147.474V161.28H61.3882L70.9803 181.458L61.3882 192.078L81.1053 212.787L92.2961 201.636L111.48 209.601V225H144.52V209.601L163.704 201.636L174.895 212.787L194.612 192.078L185.02 181.458L194.612 161.28H209V147.474H169.033L153.579 178.272L128 185.175L102.421 178.272L86.9671 147.474H47Z" fill="white"/>
</svg>
